<svg width="26" height="28" viewBox="0 0 26 28" fill="none" xmlns="http://www.w3.org/2000/svg">
<path d="M25.4156 8.5875C25.2303 8.4008 25.0097 8.25274 24.7667 8.1519C24.5237 8.05105 24.2631 7.99942 24 8H20V7C20 5.14348 19.2625 3.36301 17.9497 2.05025C16.637 0.737498 14.8565 0 13 0C11.1435 0 9.36301 0.737498 8.05025 2.05025C6.7375 3.36301 6 5.14348 6 7V8H2C1.46957 8 0.960859 8.21071 0.585786 8.58579C0.210714 8.96086 0 9.46957 0 10V23.5C0 25.9375 2.0625 28 4.5 28H21.5C22.6791 28.0004 23.8114 27.5394 24.655 26.7156C25.0795 26.3106 25.4176 25.8238 25.6487 25.2846C25.8799 24.7453 25.9994 24.1648 26 23.5781V10C26.0008 9.73762 25.9496 9.47768 25.8493 9.23522C25.749 8.99277 25.6016 8.77261 25.4156 8.5875ZM8 7C8 5.67392 8.52678 4.40215 9.46447 3.46447C10.4021 2.52678 11.6739 2 13 2C14.3261 2 15.5979 2.52678 16.5355 3.46447C17.4732 4.40215 18 5.67392 18 7V8H8V7Z" fill="#F9F9F9"/>
</svg>
