<svg width="32" height="32" viewBox="0 0 32 32" fill="none" xmlns="http://www.w3.org/2000/svg">
<g clip-path="url(#clip0_3_2)">
<path d="M15.9872 3.73596e-06C24.8166 -0.0059696 31.9898 7.15179 32 15.9787C32.0102 24.8209 24.8363 32 15.9957 32C7.168 32 0 24.832 0 16.0034C0 7.17483 7.16032 0.00597707 15.9872 3.73596e-06ZM4.91776 15.7423C4.91776 17.478 4.91776 19.1505 4.92715 20.8239C4.92715 20.9092 5.04576 21.0381 5.13792 21.0799C5.91445 21.4036 6.69525 21.7165 7.48032 22.0186C7.56938 22.0466 7.64945 22.0976 7.71239 22.1666C7.77534 22.2355 7.81892 22.3199 7.83872 22.4111C8.11175 23.3285 8.68932 24.1253 9.47614 24.6703C10.263 25.2153 11.212 25.4758 12.1668 25.4089C14.0911 25.286 15.7013 23.808 16.0171 21.8897C16.0483 21.7386 16.132 21.6035 16.2534 21.5083C17.9226 20.288 19.5977 19.0763 21.2787 17.8731C21.3987 17.7902 21.5393 17.7423 21.6849 17.7348C25.0206 17.606 27.5063 14.6296 27.0191 11.34C26.5967 8.48214 24.0521 6.4495 21.0842 6.59712C18.2682 6.73622 15.9403 9.08288 15.8063 11.898C15.7974 12.0434 15.7497 12.1837 15.6681 12.3042C14.6005 13.8334 13.5228 15.36 12.4587 16.8841C12.4165 16.9558 12.3543 17.0136 12.2797 17.0505C12.2051 17.0873 12.1214 17.1016 12.0388 17.0914C11.2895 17.0497 10.5432 17.2151 9.8816 17.5693C9.77041 17.6166 9.64549 17.6202 9.53173 17.5795C8.97365 17.3696 8.4224 17.1401 7.87029 16.9182L4.91776 15.7423Z" fill="white"/>
<path d="M21.4186 15.8933C19.3049 15.8677 17.6435 14.1867 17.6682 12.0934C17.6921 10.0454 19.4253 8.40277 21.5253 8.43264C22.019 8.43941 22.5064 8.54365 22.9596 8.73936C23.4129 8.93507 23.823 9.21841 24.1664 9.57308C24.5098 9.92776 24.7798 10.3468 24.9608 10.8061C25.1418 11.2654 25.2302 11.756 25.2211 12.2496C25.1938 14.2754 23.4794 15.9189 21.4186 15.8933ZM21.463 14.4026C21.9066 14.4029 22.3403 14.2716 22.7093 14.0254C23.0782 13.7791 23.3658 13.4289 23.5356 13.0191C23.7055 12.6093 23.7499 12.1584 23.6633 11.7233C23.5767 11.2883 23.363 10.8887 23.0492 10.5751C22.7355 10.2616 22.3357 10.0482 21.9006 9.96193C21.4655 9.87568 21.0145 9.92046 20.6049 10.0906C20.1952 10.2607 19.8453 10.5486 19.5993 10.9177C19.3533 11.2869 19.2223 11.7207 19.223 12.1643C19.2253 12.7571 19.4617 13.3249 19.8808 13.7442C20.2999 14.1634 20.8677 14.4001 21.4605 14.4026H21.463Z" fill="white"/>
<path d="M9.16394 22.6987C9.74933 22.9257 10.2664 23.1458 10.7972 23.3284C11.3005 23.5016 11.8466 23.5052 12.352 23.3386C12.8575 23.172 13.2945 22.8444 13.5962 22.406C14.2046 21.5313 14.1935 20.3409 13.4869 19.526C13.213 19.2077 12.8196 18.9747 12.4459 18.7648C12.0892 18.5643 11.6872 18.4439 11.2768 18.2775C12.2419 17.9533 14.0621 18.4226 14.7396 20.1173C15.0316 20.852 15.0308 21.6707 14.7374 22.4048C14.4441 23.139 13.8805 23.7328 13.1627 24.064C11.6907 24.7356 9.88074 24.1399 9.16394 22.6987Z" fill="white"/>
</g>
<defs>
<clipPath id="clip0_3_2">
<rect width="32" height="32" fill="white"/>
</clipPath>
</defs>
</svg>
